Coordinates
version=1
nRows=24
nColumns=38
inDegrees=no

Units are S.I. units (second, meters, Newtons, ...)
If the header above contains a line with 'inDegrees', this indicates whether rotational values are in degrees (yes) or radians (no).

endheader
time	pelvis_tilt	pelvis_list	pelvis_rotation	pelvis_tx	pelvis_ty	pelvis_tz	hip_flexion_r	hip_adduction_r	hip_rotation_r	knee_angle_r	ankle_angle_r	subtalar_angle_r	mtp_angle_r	hip_flexion_l	hip_adduction_l	hip_rotation_l	knee_angle_l	ankle_angle_l	subtalar_angle_l	mtp_angle_l	lumbar_extension	lumbar_bending	lumbar_rotation	arm_flex_r	arm_add_r	arm_rot_r	elbow_flex_r	pro_sup_r	wrist_flex_r	wrist_dev_r	arm_flex_l	arm_add_l	arm_rot_l	elbow_flex_l	pro_sup_l	wrist_flex_l	wrist_dev_l
1.54	2.35243	1.33812	2.42321	0.629444	0.0843083	1.00073	0.62928	-0.118692	0.216981	1.039	-0.055454	0	0	0.450227	-0.116338	-0.385282	1.37066	-0.366998	0	0	-0.0275992	-0.215022	0.228084	0.125965	-0.486933	1.10137	0.717187	0.451997	0	0	0.182062	-0.466832	1.02291	0.641142	0.32866	0	0
1.55	2.34831	1.33401	2.42984	0.631516	0.0754791	1.0022	0.619657	-0.130043	0.205568	1.03618	-0.0523691	0	0	0.475553	-0.104679	-0.369443	1.35682	-0.344511	0	0	-0.0273095	-0.218998	0.227938	0.126581	-0.485955	1.09938	0.716381	0.449418	0	0	0.187206	-0.464078	1.02388	0.636075	0.330326	0	0
1.56	2.34694	1.32953	2.43444	0.63374	0.0667001	1.00348	0.610321	-0.141795	0.192889	1.0327	-0.0491534	0	0	0.500358	-0.0922255	-0.352724	1.3375	-0.323377	0	0	-0.0266363	-0.222938	0.226852	0.126898	-0.484686	1.09658	0.715286	0.447776	0	0	0.191868	-0.461423	1.02396	0.631096	0.333335	0	0
1.57	2.3467	1.32489	2.43809	0.636059	0.057955	1.00456	0.600993	-0.153275	0.180131	1.02864	-0.0457505	0	0	0.523679	-0.0795804	-0.336824	1.31288	-0.30588	0	0	-0.0258741	-0.226913	0.225078	0.127159	-0.483156	1.09324	0.71391	0.446897	0	0	0.195907	-0.458989	1.02315	0.626382	0.336839	0	0
1.58	2.34667	1.32026	2.44143	0.63844	0.0492711	1.00548	0.591619	-0.164377	0.168026	1.02471	-0.0420117	0	0	0.545274	-0.0667156	-0.321961	1.28314	-0.291525	0	0	-0.025423	-0.23088	0.222931	0.127623	-0.481531	1.08996	0.712271	0.446879	0	0	0.199537	-0.456598	1.02166	0.621698	0.340512	0	0
1.59	2.34682	1.31566	2.44457	0.640908	0.0406291	1.00626	0.582336	-0.17573	0.156761	1.0229	-0.0372721	0	0	0.565354	-0.0532445	-0.307114	1.24905	-0.279238	0	0	-0.0253868	-0.234774	0.220413	0.128382	-0.479998	1.08703	0.710555	0.447372	0	0	0.202901	-0.454115	1.01978	0.616859	0.344234	0	0
1.6	2.34729	1.31113	2.44713	0.643441	0.0320562	1.00688	0.573272	-0.18719	0.146564	1.02333	-0.0312271	0	0	0.583683	-0.0397132	-0.292604	1.21126	-0.268126	0	0	-0.0255002	-0.238506	0.217652	0.129463	-0.478575	1.08457	0.708847	0.448139	0	0	0.205956	-0.451815	1.01789	0.612349	0.347905	0	0
1.61	2.34891	1.30676	2.44829	0.645971	0.0235436	1.00729	0.564292	-0.196872	0.13744	1.0221	-0.0254786	0	0	0.600549	-0.026758	-0.278878	1.17067	-0.258579	0	0	-0.0254542	-0.241932	0.214872	0.130847	-0.47725	1.08283	0.707216	0.44903	0	0	0.208707	-0.449886	1.01604	0.608537	0.351175	0	0
1.62	2.35335	1.30225	2.44737	0.6487	0.0150561	1.00748	0.555891	-0.206516	0.126603	1.02011	-0.0187344	0	0	0.616556	-0.0128824	-0.263847	1.12741	-0.246745	0	0	-0.0273405	-0.245122	0.206183	0.13455	-0.475001	1.07939	0.705928	0.461146	0	0	0.199843	-0.447652	0.978116	0.608667	0.387971	0	0
1.63	2.35557	1.29839	2.4478	0.651311	0.00659962	1.00749	0.546765	-0.21479	0.118549	1.01859	-0.0126005	0	0	0.630145	-0.000617181	-0.252099	1.08336	-0.238429	0	0	-0.0247077	-0.247401	0.20405	0.139139	-0.475044	1.09105	0.704303	0.446002	0	0	0.20568	-0.447116	0.993106	0.604479	0.372253	0	0
1.64	2.35872	1.29464	2.44694	0.653955	-0.00183663	1.00736	0.537667	-0.222359	0.111807	1.0167	-0.00681944	0	0	0.642169	0.010932	-0.241989	1.03757	-0.231817	0	0	-0.0238436	-0.24974	0.201136	0.141401	-0.474982	1.09285	0.704253	0.443612	0	0	0.207175	-0.445986	0.991129	0.602449	0.374081	0	0
1.65	2.3618	1.29095	2.44581	0.656604	-0.0102685	1.00705	0.529342	-0.230149	0.105446	1.01702	-0.000851686	0	0	0.652914	0.0218843	-0.233607	0.991234	-0.226627	0	0	-0.0227485	-0.251982	0.19846	0.143512	-0.475308	1.09455	0.704858	0.441562	0	0	0.208374	-0.445199	0.989242	0.601133	0.376038	0	0
1.66	2.36456	1.28747	2.44435	0.659228	-0.0186996	1.0066	0.521641	-0.238134	0.0996696	1.01977	0.00627724	0	0	0.662176	0.0322918	-0.226225	0.94434	-0.222185	0	0	-0.0216048	-0.25406	0.196207	0.145493	-0.47611	1.09601	0.70624	0.44007	0	0	0.209246	-0.444765	0.987379	0.600535	0.37817	0	0
1.67	2.36721	1.28441	2.4423	0.661802	-0.0271617	1.00599	0.514217	-0.244706	0.0944437	1.02176	0.0122953	0	0	0.670165	0.0415898	-0.219959	0.897376	-0.218255	0	0	-0.0203999	-0.255788	0.19458	0.147065	-0.477336	1.09685	0.708341	0.439451	0	0	0.209833	-0.444736	0.985762	0.600763	0.379622	0	0
1.68	2.37084	1.28151	2.43895	0.664396	-0.0356435	1.00515	0.507255	-0.250553	0.0893252	1.02332	0.0178123	0	0	0.677379	0.0493233	-0.215595	0.850601	-0.213977	0	0	-0.0188368	-0.257132	0.193222	0.148225	-0.478874	1.09725	0.710914	0.439634	0	0	0.209947	-0.445046	0.983798	0.601747	0.381213	0	0
1.69	2.37517	1.27901	2.43451	0.666977	-0.0441715	1.00412	0.501047	-0.256055	0.0841634	1.02641	0.0220785	0	0	0.683814	0.0551179	-0.213506	0.804613	-0.210001	0	0	-0.0167296	-0.25806	0.194893	0.145747	-0.481089	1.09168	0.714381	0.44206	0	0	0.213942	-0.445234	0.992941	0.60186	0.373817	0	0
1.7	2.38132	1.27622	2.429	0.669699	-0.0526502	1.00296	0.496199	-0.262439	0.0776701	1.03127	0.0271042	0	0	0.688842	0.0637876	-0.204783	0.754852	-0.203062	0	0	-0.0145108	-0.258778	0.193262	0.146691	-0.483054	1.09271	0.717225	0.44061	0	0	0.213776	-0.446016	0.992045	0.603593	0.373245	0	0
1.71	2.39066	1.27475	2.41953	0.672312	-0.0611642	1.00191	0.486701	-0.264384	0.0765429	1.0271	0.0323932	0	0	0.692877	0.0691677	-0.198247	0.70535	-0.1964	0	0	-0.0129729	-0.257792	0.192277	0.147652	-0.484799	1.09285	0.719184	0.440516	0	0	0.213502	-0.445922	0.990162	0.604406	0.373235	0	0
1.72	2.40282	1.27425	2.40684	0.674935	-0.0697621	1.00094	0.474164	-0.262943	0.0789339	1.01676	0.0383434	0	0	0.695487	0.0724066	-0.192944	0.655639	-0.186433	0	0	-0.0138958	-0.255584	0.188032	0.149635	-0.485663	1.08919	0.720984	0.450538	0	0	0.20484	-0.444543	0.96031	0.607421	0.39866	0	0
1.73	2.41415	1.27413	2.39458	0.677566	-0.0784307	0.999844	0.46197	-0.261114	0.0814546	1.00726	0.0435467	0	0	0.696304	0.0744457	-0.190452	0.606392	-0.173127	0	0	-0.0121457	-0.253016	0.190481	0.147271	-0.488091	1.08419	0.723369	0.451993	0	0	0.208469	-0.443503	0.969742	0.606441	0.388563	0	0
1.74	2.42771	1.27557	2.37877	0.680132	-0.0871535	0.99914	0.441709	-0.253882	0.0932369	0.981438	0.0489748	0	0	0.691121	0.0736784	-0.191015	0.549294	-0.163983	0	0	-0.012131	-0.24846	0.189788	0.15099	-0.489536	1.08913	0.722822	0.448609	0	0	0.20624	-0.441179	0.963388	0.605085	0.389869	0	0
1.75	2.43298	1.27606	2.37247	0.683033	-0.0962064	0.998045	0.429801	-0.256041	0.0903325	0.976739	0.0527358	0	0	0.683023	0.0762909	-0.192225	0.491769	-0.153867	0	0	-0.012137	-0.246448	0.18986	0.150094	-0.49185	1.08654	0.725207	0.450168	0	0	0.205171	-0.440273	0.961538	0.605871	0.39012	0	0
1.76	2.43769	1.27648	2.36691	0.686081	-0.105473	0.996771	0.419697	-0.259989	0.0838744	0.978078	0.0565409	0	0	0.675046	0.079289	-0.193865	0.437958	-0.144997	0	0	-0.0114947	-0.244581	0.189709	0.148428	-0.494119	1.08364	0.727863	0.452009	0	0	0.203192	-0.439848	0.959766	0.607407	0.391006	0	0
1.77	2.4421	1.27714	2.36165	0.689236	-0.114899	0.995388	0.410415	-0.263934	0.075802	0.980123	0.0590273	0	0	0.666776	0.08215	-0.194523	0.387635	-0.137232	0	0	-0.0105888	-0.24261	0.189533	0.146533	-0.496511	1.08142	0.730769	0.454228	0	0	0.200772	-0.439578	0.958412	0.609115	0.391931	0	0
